# xmcd
#
# Track frame offsets:
# 183
# 13653
# 26758
#
# Disc length: 708 seconds
#
#
# Revision: 0
# Processed by: cddbd v1.5.1PL0 Copyright (c) Steve Scherf et al.
# Submitted via: FreeRIP 2.70 
#
DISCID=1b02c203
DTITLE=John Denver - Singles
DYEAR=1900
DGENRE=Country
TTITLE0=Eagles and horses (Radio edit)
TTITLE1=The flower that shattered the stone
TTITLE2=Stoneheaven sunset
EXTD=Taken form the album The flower that shattered the stone
EXTT0=
EXTT1=
EXTT2=
PLAYORDER=
